/vscmnt/brussel_pixiu_data/_data_brussel/112/vsc11236/PredSimResults/SUBJ11opt3D/expIG/worker_14.mot
version=1
nRows=10
nColumns=50
inDegrees=yes
endheader
                time	         pelvis_tilt	         pelvis_list	     pelvis_rotation	           pelvis_tx	           pelvis_ty	           pelvis_tz	       hip_flexion_r	     hip_adduction_r	      hip_rotation_r	        knee_angle_r	       ankle_angle_r	         mtp_angle_r	       hip_flexion_l	     hip_adduction_l	      hip_rotation_l	        knee_angle_l	       ankle_angle_l	         mtp_angle_l	    lumbar_extension	      lumbar_bending	     lumbar_rotation	 ercspn_r/activation	 intobl_r/activation	 extobl_r/activation	    abd_r/activation	    add_r/activation	hamstrings_r/activation	bifemsh_r/activation	glut_max_r/activation	iliopsoas_r/activation	rect_fem_r/activation	  vasti_r/activation	gastroc_r/activation	 soleus_r/activation	tib_ant_r/activation	 ercspn_l/activation	 intobl_l/activation	 extobl_l/activation	    abd_l/activation	    add_l/activation	hamstrings_l/activation	bifemsh_l/activation	glut_max_l/activation	iliopsoas_l/activation	rect_fem_l/activation	  vasti_l/activation	gastroc_l/activation	 soleus_l/activation	tib_ant_l/activation	
          0.47732490	        -11.12632636	          5.92327264	         -9.52945995	          0.90691732	          0.91662134	          0.00615059	        -10.57324667	         -7.34350009	          2.55647087	        -14.44798544	          3.54186299	         44.18344193	         40.83942887	          0.29118707	         -8.10225106	         -7.60871105	          4.40593396	          0.36943378	         -9.56111851	         -5.06204223	          3.89959661	          0.02546073	          0.01159107	          0.01000000	          0.01809278	          0.23100174	          0.02092283	          0.32117646	          0.01805076	          0.65120351	          0.01557297	          0.01805077	          0.24216994	          0.21176088	          0.01153555	          0.12002226	          0.24121502	          0.01343534	          0.07360419	          0.49847249	          0.13288091	          0.38637227	          0.05413468	          0.16591690	          0.03088531	          0.00999999	          0.01805073	          0.01557297	          0.67864416	
          0.48687140	        -11.04397927	          5.84389681	         -9.57807691	          0.92976391	          0.91408918	          0.00536056	        -11.31108776	         -7.46388551	          2.15665413	        -15.53520506	          1.95102022	         45.71358045	         40.83217286	          0.36657194	         -8.57244342	         -9.48917813	          3.43182098	          0.40943866	         -9.05434960	         -5.07333630	          4.11359466	          0.02842874	          0.00999999	          0.01000001	          0.01560922	          0.29764294	          0.01805080	          0.28937661	          0.01557297	          0.78685565	          0.01343531	          0.01557298	          0.20892780	          0.18269292	          0.00999999	          0.10498681	          0.20810395	          0.01159110	          0.06350070	          0.51344142	          0.11464063	          0.33333578	          0.27545304	          0.14314184	          0.02664575	          0.00999999	          0.01557294	          0.01343530	          0.80362422	
          0.49641790	        -10.93691879	          5.76745933	         -9.56044883	          0.95250582	          0.91166640	          0.00455481	        -11.56516729	         -7.55681083	          1.74561334	        -17.55587666	          0.64322888	         46.58381689	         40.70303633	          0.43112988	         -8.77063450	        -11.68976698	          2.52516987	          0.27753225	         -8.59416291	         -5.10982305	          4.26036656	          0.14531788	          0.00999999	          0.01000000	          0.01346658	          0.25678614	          0.01557301	          0.24965452	          0.01343530	          0.86975066	          0.01159107	          0.01343531	          0.18024873	          0.15761506	          0.00999999	          0.09789312	          0.20354014	          0.01000001	          0.20778669	          0.51606555	          0.09890416	          0.28757950	          0.43261166	          0.12349307	          0.02298815	          0.00999999	          0.01343528	          0.01159107	          0.87999769	
          0.50596440	        -10.81031192	          5.70826081	         -9.47722562	          0.97484197	          0.90963202	          0.00367389	        -11.24412091	         -7.64930767	          1.35415249	        -20.58249330	         -0.53016781	         46.82352132	         40.53339059	          0.54198734	         -8.89842108	        -13.86252096	          1.75837442	          0.22659897	         -8.21227437	         -5.18361048	          4.33774937	          0.13728654	          0.00999999	          0.01159107	          0.01161805	          0.23759018	          0.01343533	          0.21538498	          0.01159107	          0.92040654	          0.01000000	          0.01159107	          0.15550637	          0.13597958	          0.00999999	          0.11807949	          0.17560063	          0.00999999	          0.24832437	          0.48262350	          0.08532780	          0.24810408	          0.49607926	          0.10654144	          0.01983263	          0.01000000	          0.01159105	          0.00999999	          0.92666837	
          0.51551090	        -10.66573908	          5.68434892	         -9.32880710	          0.99653875	          0.90816319	          0.00271785	        -10.32465488	         -7.76761330	          1.00840095	        -24.55562271	         -1.78273279	         46.48298558	         40.45923840	          0.71142184	         -8.94409656	        -16.13567351	          0.94814557	          0.14744535	         -7.93298277	         -5.31942122	          4.33867677	          0.21248667	          0.00999999	          0.00999999	          0.01002326	          0.24639541	          0.01159109	          0.18581956	          0.00999999	          0.79406432	          0.01000000	          0.00999999	          0.13416035	          0.11731395	          0.00999999	          0.10641923	          0.15149631	          0.00999999	          0.28087238	          0.41649529	          0.07361504	          0.21404737	          0.51257393	          0.09191673	          0.01711026	          0.14055452	          0.00999999	          0.00999999	          0.95518814	
          0.52505739	        -10.50877234	          5.68411362	         -9.13177526	          1.01753027	          0.90740197	          0.00173864	         -8.85599992	         -7.90578643	          0.73046162	        -29.27839377	         -3.33856998	         45.52391607	         40.42659533	          0.93376939	         -8.88842107	        -18.49626207	          0.57618642	          0.02867824	         -7.75564418	         -5.50456319	          4.28048051	          0.28456935	          0.00999999	          0.01000004	          0.00999999	          0.23641662	          0.01000001	          0.18179121	          0.00999999	          0.68506482	          0.00999999	          0.00999999	          0.11574445	          0.10121052	          0.00999999	          0.09181129	          0.13070074	          0.00999999	          0.31915102	          0.35932388	          0.06351006	          0.18466555	          0.47404660	          0.07929952	          0.01476158	          0.29011789	          0.00999999	          0.00999999	          0.97261614	
          0.53460389	        -10.34922838	          5.70186326	         -8.87923810	          1.03781794	          0.90750036	          0.00075488	         -6.93316782	         -8.05618075	          0.51427467	        -34.46280251	         -5.37966499	         43.87447168	         40.28492154	          1.23643826	         -8.70533441	        -20.71073859	          0.85943609	         -0.06709466	         -7.66883600	         -5.72792859	          4.15921040	          0.33265420	          0.00999999	          0.05297910	          0.00999999	          0.23305314	          0.00999999	          0.16861249	          0.00999999	          0.59102745	          0.01914133	          0.00999999	          0.09985645	          0.08731757	          0.01000000	          0.07920855	          0.11275973	          0.00999999	          0.37503378	          0.31000026	          0.05479217	          0.15931691	          0.40897525	          0.06841424	          0.01273531	          0.43101128	          0.00999999	          0.00999999	          0.83910726	
          0.54415039	        -10.20036412	          5.70695600	         -8.57160158	          1.05736198	          0.90859137	         -0.00019312	         -4.65574907	         -8.16779847	          0.40947792	        -39.84905987	         -7.68888008	         41.00466425	         39.89517237	          1.60148643	         -8.41454195	        -22.52033189	          1.77847110	         -0.08903631	         -7.66982814	         -5.95125405	          3.98692819	          0.29235107	          0.02229916	          0.15848757	          0.00999999	          0.23249782	          0.00999999	          0.14546750	          0.00999999	          0.50989838	          0.15204393	          0.00999999	          0.08614937	          0.07533167	          0.25037339	          0.06833577	          0.09728144	          0.00999999	          0.36215467	          0.26744719	          0.04727097	          0.13744782	          0.35283610	          0.05902317	          0.01098719	          0.49889037	          0.01000000	          0.00999999	          0.72392482	
          0.55369689	        -10.07126902	          5.72136649	         -8.21204818	          1.07605652	          0.91067113	         -0.00104700	         -2.14700082	         -8.19426818	          0.50341162	        -45.25057705	         -9.29004976	         36.46982043	         39.23737575	          2.02833828	         -8.08039289	        -23.82729485	          3.13869967	          0.05345161	         -7.76530471	         -6.20126258	          3.77027587	          0.25222067	          0.08218706	          0.21300549	          0.00999999	          0.20058335	          0.00999999	          0.19503533	          0.00999999	          0.43990573	          0.26363703	          0.00999999	          0.07432384	          0.06499106	          0.29916980	          0.05895546	          0.08392783	          0.00999999	          0.31244248	          0.23073530	          0.04078220	          0.11858066	          0.30440305	          0.05092118	          0.01000006	          0.49312583	          0.01000000	          0.00999999	          0.62455322	
          0.56324339	         -9.96746846	          5.72964136	         -7.80971397	          1.09392950	          0.91361224	         -0.00178981	          0.45539404	         -8.06907127	          0.76938352	        -50.42281348	         -9.24498936	         32.17269935	         38.33046857	          2.48497548	         -7.70835998	        -24.57118509	          4.43825126	          0.28773273	         -7.95491437	         -6.45189178	          3.52199440	          0.21759888	          0.13189776	          0.22471967	          0.00999999	          0.17304971	          0.00999999	          0.21059738	          0.00999999	          0.37952082	          0.37850749	          0.00999999	          0.06412156	          0.05606988	          0.34237819	          0.05086277	          0.07240724	          0.00999999	          0.26955418	          0.19906277	          0.06159265	          0.10230335	          0.26261830	          0.04393134	          0.01000004	          0.47288885	          0.01000000	          0.00999999	          0.53882214	
